<?xml version="1.0" encoding="utf-8"?>
<svg xmlns="http://www.w3.org/2000/svg" viewBox="0 0 251 391">
<style type="text/css">  
	.st0{fill:rgb(26, 26, 26);}
</style>
<path class="st0" d="M26.2 188.2c0 0 1.1-11.7 12.9-10.6 11.8 1.1 25.1-3.1 32.9-4 7.9-0.9 12.4-12.1 12.4-12.1s-22.5-4.2-32.8-0.9 -21.5-6.2-25.1 8C22.9 182.8 26.2 188.2 26.2 188.2z"/><path class="st0" d="M130.4 165.8l6.4 22c0 0 14.6-1.6 29.8 1.7 15.2 3.3 10.4-4.1 15.2 3.3 4.8 7.4 5.3 12.2 4.6 15.3 -0.7 3 6.1-20.9-0.8-25.5 -6.9-4.7-23.3-9.8-23.3-9.8L130.4 165.8z"/><ellipse class="st0" cx="58.3" cy="196.2" rx="9.3" ry="9.3"/><ellipse class="st0" cx="154.4" cy="205.5" rx="9.3" ry="9.3"/><path class="st0" d="M54.4 136.5c0 0 12.6-2.4 26.5-1.5s22.9 6 41.6 5.6 37.3-0.9 37.3-0.9"/><path class="st0" d="M91.6 153.6c0 0 9.3 10.9 9.3 17"/><path class="st0" d="M117.3 172.8c0 0 4.7-13 14.2-18.9"/><path class="st0" d="M7.8 188.9c-0.4 1.7-0.6 2.7-0.6 2.7S7.4 191 7.8 188.9z"/><path class="st0" d="M212.6 51.3c-51.9-38-56.6-47.3-83.7-46.5C97.2 5.8 70.7 8.7 64.5 16.5c-6.2 7.8-29.5 3.1-38.8 21.7C16.4 56.8 2.5 94 4 117.2s4.7 40.3 4.7 55.8c0 8.6-0.5 13.4-0.9 15.9 3-12.2 15-62.7 16.4-76.3 1.6-15.5 12.4-31 23.3-34.1 0 0 6.2 17 26.4 12.4 20.2-4.6 24.8-7.7 38.8-6.2 14 1.6 54.3 34.1 60.5 38.7 6.2 4.7 20.2 9.3 26.4 17 6.2 7.8 9.3 35.6 9.3 35.6s-4.6 14 0 24.8c4.7 10.9 9.2-22.2 9.2-22.2l7.1-10.6c0 0 11.8-8.3 10.6 3.6 -1.3 13.2-11.8 24.3-11.8 36.7 0 10.3-3.1 20.7-7.6 26.5 -0.1-0.4-0.3-0.6-0.6-0.5 -3.5 1.2-5.9-18.9-5.9-18.9s-2.4 1.2-2.4 9.5c0 7-2.5 18.1-8.9 39.8 -0.1 0.2-0.3 0.7-0.5 1.6 -1.2 4.7-7.1 9.5-8.3 10.6 -5.4 5.4 0.1-2.1-8.3 8.3 -9.5 11.8-9.5 28.4-15.7 34 -1.2 1.1-2.9 1.6-3.7 0.1l-1.7-2.9c-0.5-0.8-0.4-1.9 0.3-2.6 1-1.1 2.5-3.1 3.4-6.7 1.4-5.7-7.5-12.6-9.1-13.8 -0.2-0.1-0.3-0.2-0.5-0.3 -2.9-1.1-29.6-10.8-36.9-12.3 -7.7-1.5-13.9 6.2-17.1 6.2 -2.6 0-10.7-4.4-13.2-5.8 -0.5-0.3-1.1-0.3-1.6-0.2 -2.8 0.8-12.1 3.4-22.4 6 -10.2 2.6-14.1 14.6-15.2 18.8 -0.2 0.8 0.1 1.7 0.8 2.2l3.6 2.7c0.9 0.7 1.1 1.9 0.6 2.8l-1.6 2.7c-0.9 1.5-3 1.4-3.7-0.2l-2.5-5.1 -14-24.2c-0.7-1.2-1.9-2.1-3.3-2.5 -0.3-0.1-0.6-0.2-0.9-0.3 -1.6-0.6-2.8-2-3.1-3.7l-2.4-13.4c0 10.9 2.3 50.4 14.7 67.4 13.7 18.8 15.5 26.3 27.9 35.6 12.4 9.3 29.5 17 48.1 17 18.6 0 43.4-26.3 48.1-35.6 7.1-9.3 32.3-51 35.7-57.3 2.3-4.4 3.6-10.7 4.2-14.2l0.9-2c4.4 6.2 8.1 14.7 8.1 14.7s0.8-19.4 5.4-31.8c4.7-12.4 14.4-26.3 21.5-57C239.6 186.3 267.8 91.7 212.6 51.3zM144.5 340.7l-10.2 3.5c-1.8 0.9-7.6-0.3-11.7-2.2 -2.3-1.1-3.7-3.4-3.6-5.9l0.5-9.8c-0.4-0.3-0.9-0.6-1.5-0.6H90.7c-0.8 0-1.5 0.5-1.9 1.2l1.5 7.7c0.6 3-1.3 6-4.4 6.6 -2.4 0.5-5.2 0.4-7.4 0l-12-1.6c-3.1-1.5 1.2-10.1 1.2-13.4l0-5.3c0-2.7 2.4-4.8 5.1-4.5 9 1.1 24.6 5.9 32.2 4.7 6.9-1.1 21.4-3.1 28.5-4.1 2.5-0.3 4.9 0.9 6.1 3l1.3 2.2C141 328.9 150.5 334.8 144.5 340.7z"/></svg>